<?xml version="1.0" standalone="no"?>
<!DOCTYPE svg PUBLIC "-//W3C//DTD SVG 20010904//EN"
 "http://www.w3.org/TR/2001/REC-SVG-20010904/DTD/svg10.dtd">
<svg version="1.0" xmlns="http://www.w3.org/2000/svg"
 width="2398.000000pt" height="2279.000000pt" viewBox="0 0 2398.000000 2279.000000"
 preserveAspectRatio="xMidYMid meet">

<g transform="translate(0.000000,2279.000000) scale(0.100000,-0.100000)"
fill="#000000" stroke="none">
<path d="M13370 22774 c-19 -2 -87 -9 -150 -15 -168 -15 -440 -63 -629 -110
-1002 -247 -1919 -847 -2486 -1627 -38 -52 -65 -81 -75 -78 -8 2 -73 20 -145
40 -326 92 -550 121 -920 121 -435 0 -736 -47 -1135 -177 -1040 -340 -1876
-1106 -2280 -2089 -89 -217 -171 -505 -200 -702 -15 -101 -2 -87 -167 -185
-458 -273 -874 -682 -1166 -1149 -88 -141 -253 -475 -310 -629 -95 -256 -168
-555 -204 -839 -21 -170 -24 -615 -4 -770 63 -508 199 -930 426 -1330 356
-627 872 -1115 1523 -1439 428 -214 889 -339 1377 -376 199 -14 2116 -14 2148
1 14 6 30 21 36 33 6 11 30 236 54 499 47 520 47 526 -8 547 -17 6 -422 10
-1123 10 -1191 0 -1213 1 -1462 56 -861 192 -1572 869 -1805 1720 -57 207 -76
345 -82 580 -10 373 43 658 183 993 197 470 580 906 1031 1174 146 87 153 90
352 177 117 51 180 84 192 100 14 20 26 95 54 345 35 314 49 400 95 559 133
473 459 934 887 1257 634 479 1435 655 2154 474 167 -42 293 -92 596 -236 196
-92 306 -139 329 -139 43 0 45 2 250 354 239 411 350 562 588 797 142 139 251
231 396 333 542 382 1169 596 1850 631 318 16 835 -50 1165 -150 697 -211
1312 -681 1739 -1329 281 -425 441 -841 517 -1336 18 -118 22 -189 23 -380 0
-225 -2 -250 -47 -589 -26 -194 -45 -361 -42 -371 3 -9 13 -24 23 -33 10 -9
152 -52 317 -97 347 -94 437 -123 596 -194 265 -120 492 -278 710 -496 436
-435 683 -980 718 -1582 43 -735 -234 -1441 -764 -1946 -356 -340 -780 -554
-1280 -644 -116 -21 -149 -22 -1100 -28 -769 -4 -985 -8 -1002 -18 -13 -7 -26
-25 -29 -39 -4 -15 13 -245 38 -511 l45 -485 27 -24 27 -23 863 0 c852 0 1011
5 1231 36 1219 171 2269 981 2760 2130 128 300 217 631 261 979 23 176 26 642
6 810 -90 732 -375 1387 -842 1930 -109 126 -335 344 -465 448 -261 209 -588
401 -875 515 l-75 30 -6 278 c-8 351 -36 564 -114 883 -236 962 -839 1871
-1640 2471 -643 482 -1295 733 -2175 836 -127 15 -693 28 -780 18z"/>
<path d="M11235 14348 c-275 -96 -578 -168 -875 -209 -112 -15 -233 -22 -437
-26 l-282 -6 -6 -61 c-3 -33 -78 -1154 -166 -2491 -173 -2612 -168 -2499 -119
-2600 35 -72 104 -141 178 -177 l67 -33 2495 0 2495 0 57 27 c132 62 218 186
225 326 4 67 -312 4931 -321 4939 -1 2 -47 -6 -101 -17 -127 -26 -403 -66
-570 -82 -190 -18 -683 -15 -880 6 -412 42 -800 131 -1150 261 -144 53 -314
129 -388 171 -23 13 -51 23 -62 23 -11 -1 -83 -24 -160 -51z m905 -1043 c16
-8 39 -29 52 -47 22 -31 23 -43 26 -215 l4 -182 36 -6 c351 -57 546 -153 582
-287 29 -106 -15 -211 -110 -261 -48 -25 -63 -28 -120 -24 -43 2 -89 15 -135
35 -164 71 -293 98 -437 90 -185 -11 -280 -94 -280 -243 0 -74 16 -110 74
-159 57 -49 154 -78 367 -111 261 -40 399 -85 528 -173 130 -88 219 -230 248
-396 79 -456 -185 -801 -673 -878 l-81 -12 -3 -216 c-3 -235 -9 -258 -67 -293
-58 -34 -125 -26 -172 22 l-39 39 0 221 0 221 -22 4 c-13 2 -67 11 -120 20
-178 29 -411 119 -510 198 -82 64 -116 205 -70 294 43 84 113 124 215 124 59
0 76 -5 197 -65 166 -82 273 -114 406 -122 184 -11 327 41 389 141 41 68 47
170 13 236 -45 88 -139 127 -401 165 -294 43 -428 89 -573 199 -324 243 -310
817 26 1070 103 77 236 132 378 156 l72 12 0 179 c0 143 3 186 15 210 32 61
121 87 185 54z"/>
<path d="M6809 7325 c-108 -34 -193 -121 -225 -231 -13 -45 -15 -105 -12 -351
3 -281 4 -301 25 -345 29 -63 96 -134 158 -166 l50 -27 321 -3 c310 -3 323 -2
379 19 79 29 153 103 186 184 23 59 24 66 24 365 l0 305 -28 61 c-34 74 -104
145 -172 176 -48 22 -60 23 -355 25 -243 2 -314 -1 -351 -12z"/>
<path d="M12483 6712 c-94 -33 -143 -77 -194 -172 l-24 -45 0 -2325 c0 -2224
1 -2330 19 -2445 152 -977 787 -1607 1708 -1695 69 -7 297 -10 588 -8 l475 3
50 25 c73 36 138 105 164 175 21 56 22 73 19 275 -3 211 -3 216 -30 266 -35
67 -115 138 -181 161 -47 16 -92 18 -462 18 -442 1 -482 4 -644 60 -354 120
-549 427 -630 990 -37 260 -41 392 -41 1537 l0 1117 868 3 867 3 56 26 c76 36
133 90 166 157 l28 57 0 225 0 225 -28 57 c-30 62 -83 115 -149 150 l-43 23
-882 3 -882 2 -3 453 c-3 439 -4 453 -25 499 -30 66 -96 133 -162 165 l-56 28
-260 2 c-230 3 -266 1 -312 -15z"/>
<path d="M23973 6425 c0 -33 2 -45 4 -27 2 18 2 45 0 60 -2 15 -4 0 -4 -33z"/>
<path d="M2605 5700 c-490 -50 -923 -203 -1314 -464 -170 -113 -264 -189 -410
-331 -762 -739 -1047 -1820 -750 -2844 134 -460 395 -891 745 -1231 443 -430
986 -694 1614 -786 94 -14 223 -18 697 -21 410 -3 597 -1 636 7 80 16 155 65
192 124 l30 49 0 271 c0 259 -1 273 -22 311 -42 79 -117 127 -224 145 -38 6
-265 10 -554 10 -385 0 -511 3 -590 15 -384 58 -733 240 -1026 534 -180 181
-292 341 -400 566 -247 521 -249 1096 -4 1601 377 779 1254 1184 2090 967 637
-165 1142 -673 1305 -1314 55 -216 53 -164 59 -1669 l6 -1395 23 -43 c35 -66
88 -119 150 -149 l57 -28 275 0 c272 0 275 0 325 25 64 31 124 92 156 155 l24
50 0 1440 c0 1335 -1 1449 -18 1560 -76 508 -261 945 -576 1360 -97 129 -367
399 -496 496 -411 312 -840 494 -1340 569 -161 24 -513 35 -660 20z"/>
<path d="M6837 5565 c-89 -33 -172 -121 -198 -212 -12 -40 -14 -452 -14 -2563
l0 -2515 29 -63 c36 -78 105 -143 183 -172 54 -20 72 -21 322 -18 247 3 269 5
312 24 67 31 124 87 159 156 l30 61 0 2532 c0 2886 10 2587 -94 2690 -93 92
-107 95 -426 94 -201 0 -274 -4 -303 -14z"/>
<path d="M10340 5564 c-600 -82 -1086 -396 -1390 -899 -166 -274 -271 -607
-310 -975 -6 -59 -10 -731 -10 -1752 0 -1653 0 -1657 21 -1713 25 -67 94 -141
164 -175 50 -25 53 -25 330 -25 l280 0 57 28 c67 33 121 90 157 166 l26 56 6
1630 c6 1746 3 1642 54 1850 26 107 90 264 144 354 150 248 341 400 613 486
146 46 248 57 613 64 l340 6 54 30 c68 37 125 102 151 171 18 48 20 78 20 254
0 176 -2 206 -20 254 -26 69 -83 134 -151 171 l-54 30 -495 2 c-381 1 -519 -2
-600 -13z"/>
<path d="M17626 5564 c-972 -132 -1624 -871 -1706 -1934 -8 -101 -10 -632 -8
-1755 l3 -1610 26 -55 c33 -70 89 -126 159 -159 l55 -26 275 0 c267 0 276 1
327 24 62 28 136 103 166 169 l22 47 6 1625 c6 1779 2 1656 64 1885 132 482
449 779 920 860 133 23 375 23 510 0 257 -43 463 -149 626 -322 162 -171 261
-388 321 -698 21 -109 22 -129 27 -1730 l6 -1620 26 -56 c33 -71 87 -125 158
-158 l56 -26 280 0 280 0 57 28 c67 33 121 90 157 166 l26 56 6 1630 c5 1483
7 1638 22 1715 61 303 168 526 337 700 152 157 340 258 568 305 118 25 298 35
434 24 609 -46 977 -415 1085 -1089 15 -94 17 -271 22 -1710 l6 -1605 23 -43
c35 -66 88 -119 150 -149 l57 -28 275 0 c261 0 277 1 322 22 70 32 131 94 164
166 l29 62 0 1660 c0 1321 -3 1684 -13 1775 -49 415 -164 750 -361 1047 -310
464 -774 742 -1361 813 -142 17 -936 13 -1082 -6 -307 -39 -597 -146 -838
-307 -105 -70 -161 -116 -270 -223 l-95 -93 -115 112 c-140 135 -263 225 -430
311 -203 104 -414 170 -653 201 -157 20 -970 20 -1121 -1z"/>
</g>
</svg>
